<svg version="1" xmlns="http://www.w3.org/2000/svg" width="582.667" height="582.667" viewBox="0 0 437.000000 437.000000"><path d="M192.5.7c-32 3.9-65.9 16.4-92.9 34.3-13.5 8.9-21.1 15.2-33 26.8C32.5 95.2 11.1 137 3.3 185.1c-1.2 7.5-1.7 16.7-1.7 32.9 0 19.1.3 24.5 2.3 35.5 4.1 23.3 10.4 42.4 20.8 63 5.5 11.1 17.6 30.1 23.2 36.5l3 3.5.1-45.5c0-48 .9-68 3.6-82 1.6-8.6 6-22.4 8.6-27 6.1-10.9 16.2-22.6 22.3-25.7 1.6-.9 4.4-2.7 6.2-4 3.5-2.7 18.8-7.3 24-7.3 1.7 0 3.4-.4 3.7-.8.7-1.1 22.8-.6 29.5.7 29.9 5.7 48.5 26.2 55.8 61.6 2.6 13 2.6 51.9-.1 65.5-1.5 7.6-5.2 20.2-8.2 27.5-3.4 8.5-16 22.8-24.6 27.9-11.3 6.8-17 8.1-35.8 8.1-14.7 0-17.2-.3-23-2.4-3.5-1.2-9.6-4.5-13.4-7.3-4-2.9-6.6-4.3-6.3-3.3.4.9.7 13.6.7 28.1V397l7.2 4.7c24.5 15.6 52.6 26.4 82.8 31.8 12.8 2.2 42.7 3.1 57.1 1.6 42.4-4.4 82.5-20.9 115.4-47.6 37.1-30.1 65.5-75.9 75.6-122 7.2-32.4 6.6-70.3-1.5-102.5C409.3 79.1 337.8 14.5 251.5 1.5c-9.2-1.4-49.8-2-59-.8z"/><path d="M115.8 206.1c-9.1 4.6-15.7 14.6-18.6 27.9-1.9 8.8-3.2 28.4-3.2 47.8v18l6.3 5.6c9 8.1 14.5 10.1 28.2 10.1 10.7 0 11.1-.1 16.2-3.3 6.6-4.2 11.5-12.1 15.1-24.2 2.2-7.5 2.4-43.5.3-53-2-8.8-7.1-19.8-11.1-23.7-9-8.8-22.1-10.9-33.2-5.2z"/></svg>